<svg xmlns="http://www.w3.org/2000/svg" width="384pt" height="384pt" viewBox="0 0 384 384" version="1.1" class="iconadda">
<g id="animate_0" transform="rotate(0,192,192) translate(0,0) scale(1.0,1.0)">
<g id="animate_1" style="transform-origin: 192px 104.636px;"><path style="stroke-width: 15; stroke-linecap: round; stroke-linejoin: round; stroke-opacity: 1; stroke-miterlimit: 10;" d="M 197.265625 97.291667 C 211.192708 89.557292 227.223958 85.15625 244.28125 85.15625 L 267.71875 85.15625 C 321.291667 85.15625 364.71875 128.583333 364.71875 182.15625 L 364.71875 226.53125 C 364.71875 251.385417 344.572917 271.53125 319.71875 271.53125 L 192.28125 271.53125 C 167.427083 271.53125 147.28125 251.385417 147.28125 226.53125 L 147.28125 182.15625 C 147.28125 158.276042 155.911458 136.411458 170.21875 119.510417 M 244.40625 85.15625 C 225.078125 85.15625 209.40625 69.484375 209.40625 50.15625 L 209.40625 13.520833 C 209.40625 9.802083 213.317708 7.385417 216.640625 9.046875 L 230.796875 16.125 C 236.572917 19.010417 243.546875 17.880208 248.114583 13.3125 L 252.463542 8.963542 C 254.416667 7.010417 257.583333 7.010417 259.536458 8.963542 L 263.885417 13.3125 C 268.453125 17.880208 275.427083 19.010417 281.203125 16.125 L 295.359375 9.046875 C 298.682292 7.385417 302.59375 9.802083 302.59375 13.520833 L 302.59375 50.15625 C 302.59375 69.484375 286.921875 85.15625 267.59375 85.15625 " transform="matrix(0.75,0,0,0.75,0,0)" id="animate_2" stroke="#000000" data-original="#000000" fill="none" stroke-width="15px"></path>
</g><g id="animate_3" style="transform-origin: 192px 229.24px;"><path style="stroke-width: 15; stroke-linecap: round; stroke-linejoin: round; stroke-opacity: 1; stroke-miterlimit: 10;" d="M 277.963542 186.34375 L 299.927083 164.380208 C 305.989583 158.317708 305.989583 148.479167 299.927083 142.416667 C 293.864583 136.354167 284.026042 136.354167 277.963542 142.416667 L 256 164.380208 L 234.036458 142.416667 C 227.973958 136.354167 218.135417 136.354167 212.072917 142.416667 C 206.010417 148.479167 206.010417 158.317708 212.072917 164.380208 L 234.036458 186.34375 L 212.072917 208.307292 C 206.010417 214.369792 206.010417 224.208333 212.072917 230.270833 C 218.135417 236.333333 227.973958 236.333333 234.036458 230.270833 L 256 208.307292 L 277.963542 230.270833 C 284.026042 236.333333 293.864583 236.333333 299.927083 230.270833 C 305.989583 224.208333 305.989583 214.369792 299.927083 208.307292 Z M 118.223958 183.213542 L 118.223958 255.265625 M 148.703125 409.864583 C 151.229167 408.177083 153.583333 406.244792 155.734375 404.09375 C 164.677083 395.151042 169.942708 382.53125 169.067708 368.697917 C 167.598958 345.453125 148.541667 326.84375 125.270833 325.880208 C 117.401042 325.552083 109.947917 327.213542 103.369792 330.395833 C 97.010417 333.473958 89.421875 332.328125 84.427083 327.333333 L 59.197917 302.104167 M 393.776042 183.213542 L 393.776042 255.265625 M 363.296875 409.864583 C 360.770833 408.177083 358.416667 406.244792 356.265625 404.09375 C 347.322917 395.151042 342.057292 382.53125 342.932292 368.697917 C 344.401042 345.453125 363.458333 326.84375 386.729167 325.880208 C 394.598958 325.552083 402.052083 327.213542 408.630208 330.395833 C 414.989583 333.473958 422.578125 332.328125 427.572917 327.333333 L 452.802083 302.104167 M 154.494792 442.375 L 220.854167 442.375 C 223.109375 442.375 224.9375 444.203125 224.9375 446.458333 L 224.9375 469.354167 C 224.9375 471.609375 223.109375 473.4375 220.854167 473.4375 L 89.239583 473.4375 C 86.984375 473.4375 85.15625 471.609375 85.15625 469.354167 L 85.15625 446.458333 C 85.15625 444.203125 86.984375 442.375 89.239583 442.375 L 119.5 442.375 M 291.145833 473.4375 L 422.760417 473.4375 C 425.015625 473.4375 426.84375 471.609375 426.84375 469.354167 L 426.84375 446.458333 C 426.84375 444.203125 425.015625 442.375 422.760417 442.375 L 291.145833 442.375 C 288.890625 442.375 287.0625 444.203125 287.0625 446.458333 L 287.0625 469.354167 C 287.0625 470.4375 287.494792 471.479167 288.260417 472.244792 C 289.026042 473.010417 290.0625 473.4375 291.145833 473.4375 Z M 224.9375 457.90625 L 287.0625 457.90625 M 214.442708 473.4375 L 103.010417 473.4375 M 214.442708 442.375 L 214.442708 426.265625 C 214.442708 420.104167 216.744792 414.203125 220.760417 409.536458 C 233.041667 395.270833 240.46875 376.697917 240.46875 356.395833 L 240.46875 271.53125 " transform="matrix(0.75,0,0,0.75,0,0)" id="animate_4" stroke="#000000" data-original="#000000" fill="none" stroke-width="15px"></path>
</g><g id="animate_5" style="transform-origin: 192.002px 242.612px;"><path style="stroke-width: 15; stroke-linecap: round; stroke-linejoin: round; stroke-opacity: 1; stroke-miterlimit: 10;" d="M 153.223958 148.65625 C 149.208333 144.510417 143.619792 142.265625 137.854167 142.479167 C 126.8125 142.869792 118.223958 152.28125 118.223958 163.328125 L 118.223958 183.213542 C 118.223958 171.713542 108.697917 162.442708 97.109375 162.854167 C 86.067708 163.244792 77.479167 172.65625 77.479167 183.703125 L 77.479167 320.380208 L 59.197917 302.098958 C 46.390625 289.291667 25.625 289.291667 12.817708 302.098958 C 5.734375 309.182292 5.734375 320.666667 12.817708 327.755208 L 72.026042 386.963542 L 94.802083 408.046875 C 100.036458 412.895833 103.015625 419.708333 103.015625 426.84375 L 103.015625 442.375 M 297.557292 473.4375 L 408.989583 473.4375 M 297.557292 442.375 L 297.557292 426.265625 C 297.557292 420.104167 295.255208 414.203125 291.239583 409.536458 C 278.958333 395.270833 271.53125 376.697917 271.53125 356.395833 L 271.53125 271.53125 M 434.526042 297.260417 L 434.526042 320.380208 L 452.807292 302.098958 C 465.614583 289.291667 486.380208 289.291667 499.1875 302.098958 C 506.270833 309.182292 506.270833 320.666667 499.1875 327.755208 L 439.979167 386.963542 L 417.197917 408.052083 L 417.203125 408.046875 C 411.963542 412.895833 408.989583 419.708333 408.989583 426.84375 L 408.989583 442.375 M 358.776042 148.65625 C 362.791667 144.510417 368.380208 142.265625 374.145833 142.479167 C 385.1875 142.869792 393.776042 152.28125 393.776042 163.328125 L 393.776042 183.213542 C 393.776042 171.713542 403.302083 162.442708 414.890625 162.854167 C 425.932292 163.244792 434.520833 172.65625 434.520833 183.703125 L 434.520833 261.255208 M 408.989583 473.4375 L 297.557292 473.4375 M 103.010417 473.4375 L 103.010417 499.5 C 103.010417 500.828125 103.536458 502.098958 104.473958 503.036458 C 105.416667 503.973958 106.6875 504.5 108.010417 504.5 L 209.442708 504.5 C 210.770833 504.5 212.041667 503.973958 212.979167 503.036458 C 213.916667 502.098958 214.442708 500.828125 214.442708 499.5 L 214.442708 473.4375 M 297.557292 473.4375 L 297.557292 499.5 C 297.557292 500.828125 298.083333 502.098958 299.020833 503.036458 C 299.958333 503.973958 301.229167 504.5 302.557292 504.5 L 403.989583 504.5 C 405.3125 504.5 406.583333 503.973958 407.526042 503.036458 C 408.463542 502.098958 408.989583 500.828125 408.989583 499.5 L 408.989583 473.4375 " transform="matrix(0.75,0,0,0.75,0,0)" id="animate_6" stroke="#000000" data-original="#000000" fill="none" stroke-width="15px"></path>
</g></g>
</svg>