<svg xmlns="http://www.w3.org/2000/svg" width="384pt" height="384pt" viewBox="0 0 384 384" version="1.1" class="iconadda">
<g id="animate_0" transform="rotate(0,192,192) translate(0,0) scale(1.0,1.0)">
<g id="animate_1" style="transform-origin: 152.459px 364.238px;"><path style="stroke: none; fill-rule: nonzero; fill-opacity: 1;" d="M 152.460938 345.011719 C 149.359375 345.011719 146.847656 347.523438 146.847656 350.625 L 146.847656 377.855469 C 146.847656 380.953125 149.359375 383.464844 152.460938 383.464844 C 155.558594 383.464844 158.070312 380.953125 158.070312 377.855469 L 158.070312 350.625 C 158.070312 349.136719 157.480469 347.707031 156.429688 346.65625 C 155.375 345.601562 153.949219 345.011719 152.460938 345.011719 Z M 152.460938 345.011719 " id="animate_2" data-original="#000001" fill="#000001"></path>
</g><g id="animate_3" style="transform-origin: 192.375px 295.211px;"><path style="stroke: none; fill-rule: nonzero; fill-opacity: 1;" d="M 257.636719 327.769531 L 234.332031 318.257812 L 234.332031 305.664062 C 244.3125 295.171875 250.457031 281.003906 250.457031 265.414062 C 250.457031 233.179688 224.234375 206.957031 192 206.957031 C 178.722656 206.957031 166.199219 211.308594 155.785156 219.542969 L 155.785156 219.546875 C 153.351562 221.46875 152.9375 225 154.859375 227.429688 C 156.78125 229.863281 160.3125 230.273438 162.742188 228.351562 C 171.15625 221.699219 181.273438 218.183594 192 218.183594 C 218.046875 218.183594 239.234375 239.371094 239.234375 265.417969 C 239.234375 291.460938 218.046875 312.652344 192 312.652344 C 165.957031 312.652344 144.765625 291.464844 144.765625 265.417969 C 144.765625 258.339844 146.296875 251.523438 149.320312 245.167969 C 150.652344 242.371094 149.460938 239.019531 146.664062 237.691406 C 143.863281 236.359375 140.515625 237.550781 139.183594 240.347656 C 135.441406 248.222656 133.542969 256.652344 133.542969 265.414062 C 133.542969 281.390625 139.992188 295.886719 150.414062 306.449219 L 150.414062 318.257812 L 127.109375 327.769531 C 118.972656 331.089844 113.714844 338.914062 113.714844 347.703125 L 113.714844 377.851562 L 113.71875 377.855469 C 113.71875 380.953125 116.230469 383.464844 119.328125 383.464844 C 122.429688 383.464844 124.941406 380.953125 124.941406 377.855469 L 124.941406 347.703125 C 124.929688 343.511719 127.46875 339.734375 131.355469 338.160156 L 158.148438 327.226562 C 160.261719 326.363281 161.640625 324.3125 161.640625 322.03125 L 161.640625 315.351562 C 170.496094 320.753906 180.890625 323.871094 192 323.871094 C 203.429688 323.871094 214.09375 320.5625 223.109375 314.871094 L 223.109375 322.03125 C 223.109375 324.308594 224.488281 326.363281 226.601562 327.226562 L 253.394531 338.160156 C 257.28125 339.734375 259.820312 343.511719 259.808594 347.703125 L 259.808594 377.851562 C 259.808594 380.949219 262.320312 383.464844 265.421875 383.464844 C 268.523438 383.464844 271.035156 380.953125 271.035156 377.851562 L 271.035156 347.703125 C 271.035156 338.914062 265.777344 331.089844 257.640625 327.769531 Z M 257.636719 327.769531 " id="animate_4" data-original="#000001" fill="#000001"></path>
</g><g id="animate_5" style="transform-origin: 192.375px 282.721px;"><path style="stroke: none; fill-rule: nonzero; fill-opacity: 1;" d="M 232.289062 345.011719 C 229.1875 345.011719 226.675781 347.523438 226.675781 350.625 L 226.675781 377.855469 C 226.675781 380.953125 229.1875 383.46875 232.289062 383.46875 C 235.390625 383.46875 237.902344 380.957031 237.902344 377.855469 L 237.902344 350.625 C 237.902344 347.523438 235.390625 345.011719 232.289062 345.011719 Z M 146.847656 187.585938 L 146.847656 201.203125 L 146.847656 201.199219 C 146.847656 204.300781 149.359375 206.8125 152.460938 206.8125 C 155.558594 206.8125 158.070312 204.300781 158.070312 201.199219 L 158.070312 187.582031 L 158.070312 187.585938 C 158.070312 184.484375 155.558594 181.972656 152.460938 181.972656 C 149.359375 181.972656 146.847656 184.484375 146.847656 187.585938 Z M 226.675781 187.585938 L 226.675781 201.839844 C 226.675781 204.9375 229.1875 207.453125 232.289062 207.453125 C 235.390625 207.453125 237.902344 204.941406 237.902344 201.839844 L 237.902344 187.585938 C 237.902344 184.488281 235.390625 181.972656 232.289062 181.972656 C 229.1875 181.972656 226.675781 184.484375 226.675781 187.585938 Z M 226.675781 187.585938 " id="animate_6" data-original="#000001" fill="#000001"></path>
</g><g id="animate_7" style="transform-origin: 191.998px 121.707px;"><path style="stroke: none; fill-rule: nonzero; fill-opacity: 1;" d="M 259.074219 28.589844 C 259.074219 27.101562 258.484375 25.675781 257.429688 24.625 C 256.378906 23.570312 254.949219 22.980469 253.460938 22.980469 L 72.085938 22.980469 C 68.988281 22.980469 66.472656 25.492188 66.472656 28.589844 L 66.472656 214.816406 C 66.472656 217.914062 68.988281 220.429688 72.085938 220.429688 L 136.296875 220.429688 L 136.292969 220.429688 C 139.394531 220.429688 141.90625 217.914062 141.90625 214.816406 C 141.90625 211.71875 139.394531 209.207031 136.292969 209.207031 L 124.9375 209.207031 L 124.9375 184.667969 L 124.941406 184.667969 C 124.929688 180.476562 127.46875 176.695312 131.351562 175.121094 L 158.144531 164.1875 L 158.148438 164.1875 C 160.257812 163.324219 161.640625 161.273438 161.640625 158.992188 L 161.640625 152.449219 C 170.496094 157.851562 180.890625 160.96875 192 160.96875 C 203.429688 160.96875 214.09375 157.660156 223.109375 151.96875 L 223.109375 158.992188 C 223.109375 161.269531 224.488281 163.324219 226.601562 164.1875 L 253.394531 175.121094 C 257.28125 176.695312 259.816406 180.472656 259.808594 184.667969 L 259.808594 209.207031 L 247.707031 209.207031 C 244.605469 209.207031 242.09375 211.71875 242.09375 214.820312 C 242.09375 217.917969 244.605469 220.433594 247.707031 220.433594 L 311.914062 220.433594 L 311.914062 220.425781 C 313.402344 220.425781 314.828125 219.835938 315.878906 218.785156 C 316.933594 217.730469 317.523438 216.304688 317.523438 214.816406 L 317.523438 28.589844 C 317.523438 27.101562 316.933594 25.675781 315.878906 24.625 C 314.828125 23.570312 313.402344 22.980469 311.914062 22.980469 L 277.375 22.980469 C 274.273438 22.980469 271.761719 25.492188 271.761719 28.59375 C 271.761719 31.691406 274.273438 34.207031 277.375 34.207031 L 306.300781 34.207031 L 306.300781 39.613281 C 295.820312 53.882812 284.726562 68.972656 273.324219 84.476562 L 273.324219 84.46875 C 271.488281 86.96875 272.023438 90.480469 274.523438 92.316406 C 277.019531 94.152344 280.53125 93.617188 282.367188 91.121094 C 290.542969 80.003906 298.558594 69.105469 306.300781 58.5625 L 306.300781 121.171875 C 297.222656 133.515625 287.960938 146.101562 278.664062 158.722656 L 278.664062 158.71875 C 276.863281 161.214844 277.40625 164.699219 279.886719 166.523438 C 282.367188 168.351562 285.855469 167.835938 287.703125 165.375 C 293.933594 156.914062 300.148438 148.472656 306.304688 140.105469 L 306.304688 209.203125 L 271.03125 209.203125 L 271.03125 184.664062 C 271.03125 175.875 265.773438 168.050781 257.636719 164.730469 L 234.332031 155.21875 L 234.332031 142.761719 C 244.3125 132.269531 250.457031 118.101562 250.457031 102.511719 C 250.457031 70.277344 224.234375 44.054688 192 44.054688 C 182.480469 44.054688 173.015625 46.40625 164.636719 50.855469 L 164.636719 50.859375 C 161.898438 52.3125 160.855469 55.707031 162.308594 58.445312 C 163.761719 61.183594 167.160156 62.222656 169.898438 60.769531 C 176.664062 57.179688 184.308594 55.28125 192 55.28125 C 218.046875 55.28125 239.234375 76.46875 239.234375 102.515625 C 239.234375 128.558594 218.046875 149.75 192 149.75 C 165.957031 149.75 144.765625 128.5625 144.765625 102.515625 C 144.765625 92.511719 147.867188 82.941406 153.730469 74.847656 L 153.730469 74.84375 C 154.605469 73.640625 154.960938 72.136719 154.726562 70.667969 C 154.492188 69.199219 153.683594 67.882812 152.476562 67.007812 C 151.273438 66.136719 149.769531 65.777344 148.300781 66.011719 C 146.832031 66.246094 145.515625 67.054688 144.640625 68.261719 C 137.378906 78.285156 133.542969 90.128906 133.542969 102.511719 C 133.542969 118.488281 139.992188 132.984375 150.414062 143.546875 L 150.414062 155.222656 L 127.109375 164.734375 C 118.972656 168.054688 113.714844 175.878906 113.714844 184.667969 L 113.714844 209.207031 L 77.695312 209.207031 L 77.695312 205.492188 L 77.699219 205.488281 C 91.421875 187.070312 105.109375 168.625 118.769531 150.15625 C 120.589844 147.664062 120.058594 144.171875 117.578125 142.335938 C 115.097656 140.5 111.601562 141.011719 109.75 143.480469 C 99.082031 157.898438 88.398438 172.304688 77.699219 186.695312 L 77.699219 124.40625 C 96.613281 98.867188 119.003906 68.539062 144.300781 34.199219 L 253.464844 34.199219 C 254.953125 34.199219 256.378906 33.609375 257.429688 32.558594 C 258.484375 31.507812 259.074219 30.078125 259.074219 28.589844 Z M 77.695312 105.542969 L 77.695312 34.203125 L 130.359375 34.203125 C 112.828125 58 95.273438 81.78125 77.695312 105.542969 Z M 77.695312 105.542969 " id="animate_8" data-original="#000001" fill="#000001"></path>
</g><g id="animate_9" style="transform-origin: 192px 107.109px;"><path style="stroke: none; fill-rule: nonzero; fill-opacity: 1;" d="M 161.820312 109.226562 C 158.96875 110.441406 157.640625 113.738281 158.855469 116.589844 C 164.53125 129.914062 177.542969 138.527344 192 138.527344 C 206.457031 138.527344 219.46875 129.917969 225.144531 116.589844 C 226.359375 113.738281 225.03125 110.441406 222.183594 109.226562 C 220.8125 108.644531 219.265625 108.628906 217.886719 109.183594 C 216.507812 109.738281 215.402344 110.820312 214.820312 112.191406 C 210.910156 121.371094 201.953125 127.304688 192 127.304688 C 182.046875 127.304688 173.089844 121.375 169.179688 112.191406 C 168.597656 110.820312 167.496094 109.738281 166.113281 109.183594 C 164.734375 108.628906 163.1875 108.644531 161.820312 109.226562 Z M 180.464844 86.730469 L 180.464844 81.304688 C 180.464844 78.207031 177.953125 75.695312 174.851562 75.695312 C 171.753906 75.695312 169.242188 78.207031 169.242188 81.304688 L 169.242188 86.730469 C 169.242188 89.828125 171.753906 92.34375 174.851562 92.34375 C 177.953125 92.34375 180.464844 89.828125 180.464844 86.730469 Z M 213.507812 86.730469 L 213.507812 81.304688 C 213.507812 78.207031 210.996094 75.691406 207.894531 75.691406 C 204.792969 75.691406 202.28125 78.203125 202.28125 81.304688 L 202.28125 86.730469 C 202.28125 89.828125 204.792969 92.34375 207.894531 92.34375 C 210.996094 92.34375 213.507812 89.832031 213.507812 86.730469 Z M 213.507812 86.730469 " id="animate_10" data-original="#000001" fill="#000001"></path>
</g><g id="animate_11" style="transform-origin: 192.002px 139.562px;"><path style="stroke: none; fill-rule: nonzero; fill-opacity: 1;" d="M 369.882812 231.652344 L 339.96875 231.652344 L 339.96875 14.398438 C 339.96875 6.753906 333.75 0.535156 326.105469 0.535156 L 57.890625 0.535156 C 50.246094 0.535156 44.027344 6.753906 44.027344 14.398438 L 44.027344 231.652344 L 14.117188 231.652344 C 6.332031 231.652344 0 237.984375 0 245.765625 L 0 264.46875 C 0 272.253906 6.332031 278.585938 14.117188 278.585938 L 117.089844 278.585938 L 117.085938 278.585938 C 120.1875 278.585938 122.699219 276.074219 122.699219 272.972656 C 122.699219 269.875 120.1875 267.363281 117.085938 267.363281 L 14.117188 267.363281 C 12.519531 267.359375 11.226562 266.066406 11.222656 264.46875 L 11.222656 245.765625 C 11.226562 244.167969 12.519531 242.875 14.117188 242.875 L 122.175781 242.875 C 125.273438 242.875 127.789062 240.359375 127.789062 237.261719 C 127.789062 234.164062 125.273438 231.652344 122.175781 231.652344 L 55.25 231.652344 L 55.25 14.398438 C 55.253906 12.9375 56.433594 11.757812 57.890625 11.757812 L 326.105469 11.757812 C 327.5625 11.757812 328.746094 12.9375 328.746094 14.398438 L 328.746094 231.652344 L 261.824219 231.652344 C 258.722656 231.652344 256.210938 234.164062 256.210938 237.265625 C 256.210938 240.363281 258.722656 242.878906 261.824219 242.878906 L 369.882812 242.878906 L 369.882812 242.875 C 371.480469 242.875 372.773438 244.167969 372.777344 245.765625 L 372.777344 264.46875 C 372.773438 266.066406 371.480469 267.359375 369.882812 267.363281 L 266.914062 267.363281 C 263.8125 267.363281 261.300781 269.875 261.300781 272.976562 C 261.300781 276.074219 263.8125 278.589844 266.914062 278.589844 L 369.886719 278.589844 C 377.671875 278.589844 384.003906 272.257812 384.003906 264.472656 L 384.003906 245.769531 C 384.003906 237.984375 377.671875 231.652344 369.886719 231.652344 Z M 369.882812 231.652344 " id="animate_12" data-original="#000001" fill="#000001"></path>
</g></g>
</svg>