<svg xmlns="http://www.w3.org/2000/svg" width="384pt" height="384pt" viewBox="0 0 384 384" version="1.1" class="iconadda">
<g id="animate_0" transform="rotate(0,192,192) translate(0,0) scale(1.0,1.0)">
<g id="animate_1" style="transform-origin: 192px 192px;"><path style="stroke: none; fill-rule: nonzero; fill-opacity: 1;" d="M 251.503906 352.683594 C 250.011719 352.683594 248.582031 353.277344 247.527344 354.332031 C 246.472656 355.386719 245.878906 356.816406 245.878906 358.308594 L 245.878906 372.75 C 245.878906 375.855469 248.398438 378.375 251.503906 378.375 C 254.609375 378.375 257.128906 375.855469 257.128906 372.75 L 257.128906 358.308594 C 257.128906 356.816406 256.535156 355.386719 255.480469 354.332031 C 254.425781 353.277344 252.996094 352.683594 251.503906 352.683594 Z M 349.835938 355.621094 C 348.34375 355.621094 346.914062 356.214844 345.859375 357.269531 C 344.804688 358.324219 344.210938 359.753906 344.210938 361.246094 L 344.210938 372.75 C 344.210938 375.855469 346.730469 378.375 349.835938 378.375 C 352.941406 378.375 355.460938 375.855469 355.460938 372.75 L 355.460938 361.246094 C 355.460938 359.753906 354.867188 358.324219 353.8125 357.269531 C 352.757812 356.214844 351.328125 355.621094 349.835938 355.621094 Z M 65.625 100.246094 C 62.519531 100.246094 60 102.753906 60 105.851562 C 60 108.949219 62.519531 111.457031 65.625 111.457031 C 68.730469 111.457031 71.25 108.945312 71.25 105.851562 C 71.25 102.753906 68.730469 100.246094 65.625 100.246094 Z M 342.828125 283.199219 L 334.269531 281.660156 C 332.414062 281.328125 331.0625 279.714844 331.066406 277.832031 L 331.066406 274.082031 C 333.113281 272.925781 334.996094 271.496094 336.660156 269.835938 C 343.828125 262.675781 347.777344 253.152344 347.777344 243.019531 L 347.777344 199.4375 C 347.78125 184.863281 335.824219 173.492188 321.800781 173.480469 L 298.125 173.480469 C 283.800781 173.480469 272.148438 185.125 272.148438 199.4375 L 272.148438 243.019531 C 272.148438 253.152344 276.097656 262.675781 283.261719 269.835938 L 283.257812 269.835938 C 284.28125 270.855469 285.386719 271.789062 286.566406 272.625 L 286.566406 277.832031 C 286.570312 279.714844 285.21875 281.328125 283.367188 281.660156 C 276.179688 282.957031 268.992188 284.070312 262.5625 287.078125 C 256.265625 283.125 249.265625 280.421875 241.945312 279.109375 L 231.820312 277.289062 C 229.136719 276.808594 227.1875 274.476562 227.1875 271.75 L 227.1875 263.398438 C 232.035156 258.394531 234.707031 251.824219 234.707031 244.839844 L 234.707031 222.078125 L 234.710938 222.082031 C 234.710938 220.539062 234.078125 219.066406 232.960938 218.003906 C 231.847656 216.941406 230.34375 216.382812 228.808594 216.460938 C 227.222656 216.542969 224.117188 216.378906 221.039062 214.410156 C 218.167969 212.574219 216.722656 210.046875 216.117188 208.703125 L 216.113281 208.703125 C 215.230469 206.75 213.316406 205.464844 211.171875 205.394531 C 209.023438 205.3125 207.023438 206.472656 206.019531 208.371094 C 204.703125 210.84375 202.242188 214.269531 198 216.527344 C 190.058594 220.753906 181.78125 217.589844 180.203125 216.910156 C 178.464844 216.167969 176.46875 216.34375 174.890625 217.382812 C 173.3125 218.425781 172.359375 220.191406 172.359375 222.082031 L 172.359375 244.84375 C 172.359375 251.558594 174.824219 257.890625 179.324219 262.816406 L 179.324219 270.792969 C 179.296875 271.839844 178.433594 272.425781 177.449219 272.058594 L 169.671875 268.910156 L 169.648438 268.902344 L 161.195312 265.480469 L 161.195312 216.128906 C 161.195312 204.804688 165.609375 194.160156 173.625 186.160156 C 181.621094 178.179688 192.238281 173.785156 203.535156 173.785156 L 203.617188 173.785156 C 226.921875 173.828125 245.878906 192.824219 245.878906 216.128906 L 245.878906 266.625 C 245.878906 269.730469 248.398438 272.25 251.503906 272.25 C 254.609375 272.25 257.128906 269.730469 257.128906 266.625 L 257.128906 216.125 C 257.128906 186.628906 233.132812 162.589844 203.636719 162.53125 L 203.535156 162.53125 C 173.828125 162.53125 149.945312 186.550781 149.945312 216.125 L 149.945312 260.921875 L 128.105469 252.082031 L 104.464844 181.207031 C 102.703125 175.925781 98.96875 171.695312 93.945312 169.296875 C 89.460938 167.15625 84.480469 166.734375 79.746094 168.058594 L 69.945312 136.875 L 79.574219 136.875 C 82.679688 136.875 85.199219 134.355469 85.199219 131.25 C 85.199219 128.144531 82.679688 125.625 79.574219 125.625 L 16.875 125.625 C 13.773438 125.625 11.25 123.101562 11.25 120 L 11.25 22.5 C 11.25 19.398438 13.773438 16.875 16.875 16.875 L 114.375 16.875 C 117.476562 16.875 120 19.398438 120 22.5 L 120 120 C 120 123.101562 117.476562 125.625 114.375 125.625 L 102.074219 125.625 C 98.96875 125.625 96.449219 128.144531 96.449219 131.25 C 96.449219 134.355469 98.96875 136.875 102.074219 136.875 L 114.375 136.875 C 123.679688 136.875 131.25 129.304688 131.25 120 L 131.25 22.5 C 131.25 13.195312 123.679688 5.625 114.375 5.625 L 16.875 5.625 C 7.570312 5.625 0 13.195312 0 22.5 L 0 120 C 0 129.304688 7.570312 136.875 16.875 136.875 L 58.152344 136.875 L 69.902344 174.253906 C 65.296875 179.5625 63.59375 187.148438 66.011719 194.402344 L 92.644531 274.246094 C 94.601562 280.105469 99.222656 284.835938 105.027344 286.933594 L 146.417969 304.515625 L 146.417969 304.519531 C 148.21875 305.28125 149.386719 307.050781 149.386719 309.007812 L 149.386719 372.75 C 149.386719 375.855469 151.90625 378.375 155.011719 378.375 C 158.117188 378.375 160.636719 375.855469 160.636719 372.75 L 160.636719 309.007812 C 160.640625 305.84375 159.710938 302.746094 157.960938 300.105469 C 156.214844 297.46875 153.730469 295.402344 150.816406 294.164062 L 109.273438 276.515625 C 109.160156 276.46875 109.046875 276.425781 108.929688 276.382812 C 106.285156 275.449219 104.214844 273.347656 103.316406 270.6875 L 82.011719 206.8125 L 98.210938 198 L 118.257812 258.097656 L 118.253906 258.101562 C 118.777344 259.660156 119.953125 260.917969 121.480469 261.535156 L 153.367188 274.445312 L 153.402344 274.460938 L 163.125 278.398438 C 169.855469 296.136719 185.421875 307.878906 202.609375 307.878906 C 215.792969 307.878906 228.105469 301.082031 236.230469 289.515625 C 244.054688 290.355469 252.707031 293.324219 258.691406 298.007812 C 258.757812 298.0625 258.832031 298.105469 258.902344 298.15625 C 270.90625 306.726562 278.539062 320.742188 278.539062 336.320312 L 278.542969 372.75 C 278.542969 375.855469 281.0625 378.375 284.167969 378.375 C 287.273438 378.375 289.792969 375.855469 289.792969 372.75 L 289.792969 336.316406 C 289.792969 320.410156 283.371094 305.8125 272.792969 295.222656 C 276.113281 294.359375 282.003906 293.453125 285.3125 292.742188 C 291.53125 298.953125 299.902344 302.453125 308.824219 302.453125 C 317.742188 302.453125 326.113281 298.953125 332.332031 292.742188 L 340.84375 294.269531 C 359.328125 297.59375 372.75 313.644531 372.75 332.429688 L 372.75 372.75 C 372.75 375.855469 375.269531 378.375 378.375 378.375 C 381.480469 378.375 384 375.855469 384 372.75 L 384 332.429688 C 384 308.191406 366.683594 287.488281 342.828125 283.199219 Z M 78.394531 195.972656 L 76.683594 190.84375 C 75.09375 186.078125 77.476562 180.828125 81.992188 179.140625 C 84.328125 178.269531 86.851562 178.375 89.09375 179.449219 L 89.09375 179.445312 C 91.324219 180.5 93.023438 182.425781 93.796875 184.765625 L 94.597656 187.164062 Z M 183.609375 229.496094 C 188.9375 230.371094 196.082031 230.296875 203.289062 226.457031 C 206.132812 224.945312 208.710938 222.980469 210.925781 220.648438 C 212.15625 221.871094 213.515625 222.957031 214.980469 223.890625 C 217.570312 225.542969 220.445312 226.6875 223.460938 227.265625 L 223.460938 244.839844 C 223.472656 248.9375 221.84375 252.867188 218.9375 255.757812 L 216.042969 258.652344 L 216.046875 258.648438 C 213.980469 260.726562 211.167969 261.890625 208.238281 261.882812 L 198.835938 261.882812 C 195.90625 261.890625 193.09375 260.726562 191.027344 258.648438 L 188.132812 255.753906 C 185.226562 252.867188 183.601562 248.9375 183.609375 244.839844 Z M 202.609375 296.625 C 193.203125 296.625 184.398438 291.597656 178.457031 283.398438 C 184.773438 283.171875 190.207031 277.890625 190.550781 271.546875 C 193.1875 272.597656 196 273.136719 198.835938 273.132812 L 208.234375 273.132812 C 210.863281 273.136719 213.472656 272.675781 215.941406 271.769531 C 215.945312 277.789062 219.15625 283.355469 224.371094 286.363281 C 218.53125 292.878906 210.769531 296.625 202.609375 296.625 Z M 333.796875 190.9375 C 335.570312 193.414062 336.523438 196.386719 336.523438 199.433594 L 336.523438 218.859375 C 333.988281 218.101562 331.535156 217.082031 329.210938 215.8125 C 326.605469 214.390625 324.175781 212.664062 321.972656 210.675781 C 324.65625 207.679688 327.035156 204.425781 329.078125 200.960938 C 330.953125 197.769531 332.53125 194.414062 333.796875 190.9375 Z M 283.394531 199.4375 C 283.394531 191.328125 290.003906 184.730469 298.121094 184.730469 L 321.796875 184.730469 C 322.535156 184.730469 323.257812 184.804688 323.96875 184.910156 L 323.964844 184.90625 C 322.839844 188.519531 321.300781 191.992188 319.382812 195.253906 C 313.882812 204.601562 305.449219 210.695312 295.617188 214.929688 L 295.617188 214.933594 C 291.667969 216.628906 287.578125 217.980469 283.390625 218.96875 L 283.390625 199.4375 Z M 308.820312 291.207031 C 303.769531 291.207031 298.988281 289.511719 295.128906 286.449219 C 296.996094 283.8125 297.886719 280.496094 297.820312 277.136719 C 299.039062 277.3125 300.28125 277.402344 301.535156 277.402344 C 302.882812 277.402344 318.570312 277.433594 319.816406 277.359375 C 319.699219 280.648438 320.734375 283.894531 322.507812 286.449219 C 318.648438 289.511719 313.867188 291.203125 308.820312 291.203125 Z M 318.386719 266.152344 L 301.535156 266.152344 L 301.535156 266.148438 C 297.660156 266.160156 293.941406 264.621094 291.210938 261.875 C 286.171875 256.839844 283.394531 250.144531 283.394531 243.019531 L 283.394531 230.496094 C 289.117188 229.328125 294.703125 227.574219 300.070312 225.261719 C 304.714844 223.261719 309.167969 220.847656 313.386719 218.058594 C 316.511719 221.046875 320.019531 223.613281 323.816406 225.6875 C 327.808594 227.871094 332.085938 229.488281 336.523438 230.496094 L 336.523438 243.019531 C 336.523438 250.144531 333.746094 256.84375 328.707031 261.875 C 325.976562 264.621094 322.257812 266.160156 318.382812 266.148438 Z M 71.25 36.664062 C 71.25 33.558594 68.730469 31.039062 65.625 31.039062 C 62.519531 31.039062 60 33.558594 60 36.664062 L 60 83.335938 C 60 86.441406 62.519531 88.960938 65.625 88.960938 C 68.730469 88.960938 71.25 86.441406 71.25 83.335938 Z M 71.25 36.664062 " id="animate_2" data-original="#000001" fill="#000001" class=""></path>
</g></g>
</svg>