<svg xmlns="http://www.w3.org/2000/svg" width="384pt" height="384pt" viewBox="0 0 384 384" version="1.1" class="iconadda">
<g id="animate_0" transform="rotate(0,192,192) translate(0,0) scale(1.0,1.0)">
<g id="animate_1" style="transform-origin: 192.002px 192px;"><path style="stroke: none; fill-rule: nonzero; fill-opacity: 1;" d="M 230.195312 96.441406 C 231.6875 96.441406 233.117188 95.851562 234.171875 94.796875 C 235.226562 93.742188 235.820312 92.308594 235.820312 90.816406 L 235.820312 47.300781 L 243.820312 47.300781 C 246.925781 47.300781 249.445312 44.78125 249.445312 41.675781 C 249.445312 38.570312 246.925781 36.050781 243.820312 36.050781 L 216.679688 36.050781 C 213.574219 36.050781 211.054688 38.570312 211.054688 41.675781 C 211.054688 44.78125 213.574219 47.300781 216.679688 47.300781 L 224.570312 47.300781 L 224.570312 90.816406 C 224.570312 93.925781 227.089844 96.441406 230.195312 96.441406 Z M 340.492188 0 L 43.507812 0 C 34.203125 0 26.632812 7.570312 26.632812 16.875 L 26.632812 115.621094 C 26.632812 124.289062 33.203125 131.449219 41.625 132.390625 L 53.019531 168.632812 C 48.414062 173.9375 46.710938 181.527344 49.132812 188.78125 L 75.765625 268.625 C 77.71875 274.484375 82.34375 279.214844 88.148438 281.3125 L 129.539062 298.894531 L 129.535156 298.894531 C 131.335938 299.660156 132.507812 301.425781 132.503906 303.382812 L 132.503906 378.375 C 132.503906 381.480469 135.023438 384 138.128906 384 C 141.234375 384 143.753906 381.480469 143.753906 378.375 L 143.753906 303.382812 C 143.757812 300.21875 142.828125 297.121094 141.082031 294.480469 C 139.335938 291.84375 136.847656 289.777344 133.933594 288.539062 L 92.390625 270.890625 C 92.277344 270.84375 92.164062 270.800781 92.050781 270.757812 C 89.402344 269.824219 87.332031 267.722656 86.433594 265.0625 L 65.882812 203.449219 L 82.078125 194.640625 L 101.367188 252.476562 L 101.371094 252.476562 C 101.890625 254.035156 103.070312 255.292969 104.597656 255.910156 L 152.738281 275.398438 C 160.773438 285.789062 173.210938 291.953125 186.375 291.953125 C 199.539062 291.953125 211.980469 285.789062 220.011719 275.398438 L 229.476562 271.566406 C 232.296875 270.363281 233.628906 267.121094 232.480469 264.28125 C 231.332031 261.441406 228.117188 260.042969 225.253906 261.136719 L 212.179688 266.429688 C 209.277344 267.488281 210.566406 262.464844 210.304688 261.273438 C 214.179688 259.351562 217.296875 255.863281 220.363281 252.800781 C 226.621094 246.550781 230.066406 238.242188 230.066406 229.402344 L 230.066406 173.414062 C 230.011719 157.015625 216.550781 143.722656 200.371094 143.742188 L 172.375 143.742188 C 156 143.742188 142.679688 157.050781 142.679688 173.414062 L 142.679688 229.402344 C 142.679688 238.242188 146.125 246.550781 152.382812 252.800781 C 155.328125 255.742188 158.820312 259.34375 162.441406 261.273438 C 162.242188 262.535156 163.375 267.46875 160.566406 266.429688 L 111.222656 246.453125 L 90.71875 184.972656 C 88.179688 176.59375 85.117188 167.515625 77.0625 163.667969 C 72.578125 161.523438 67.597656 161.105469 62.863281 162.429688 L 53.453125 132.496094 L 263.601562 132.496094 C 266.707031 132.496094 269.226562 129.976562 269.226562 126.871094 C 269.226562 123.761719 266.707031 121.246094 263.601562 121.246094 L 45.734375 121.246094 C 41.929688 121.285156 37.886719 119.769531 37.882812 115.621094 L 37.882812 16.875 C 37.882812 13.773438 40.40625 11.25 43.507812 11.25 L 340.492188 11.25 C 343.59375 11.25 346.117188 13.773438 346.117188 16.875 L 346.117188 115.621094 C 346.117188 118.722656 343.59375 121.246094 340.492188 121.246094 L 286.097656 121.246094 C 282.992188 121.246094 280.472656 123.761719 280.472656 126.871094 C 280.472656 129.976562 282.992188 132.496094 286.097656 132.496094 L 319.292969 132.496094 L 309.882812 162.433594 C 299.625 159.515625 288.492188 165.441406 285.164062 175.582031 L 261.523438 246.457031 L 245.296875 253.027344 L 245.296875 253.023438 C 242.480469 254.230469 241.144531 257.46875 242.292969 260.308594 C 243.445312 263.148438 246.65625 264.546875 249.519531 263.453125 L 268.152344 255.910156 C 269.675781 255.292969 270.855469 254.039062 271.375 252.476562 L 291.417969 192.378906 L 307.613281 201.1875 L 286.308594 265.0625 L 286.3125 265.0625 C 285.414062 267.722656 283.347656 269.824219 280.699219 270.761719 C 280.582031 270.800781 280.46875 270.84375 280.359375 270.890625 L 238.816406 288.539062 L 238.8125 288.542969 C 235.898438 289.777344 233.414062 291.84375 231.667969 294.484375 C 229.921875 297.121094 228.992188 300.21875 228.996094 303.382812 L 228.996094 378.375 C 228.996094 381.480469 231.515625 384 234.621094 384 C 237.726562 384 240.246094 381.480469 240.246094 378.375 L 240.246094 303.382812 C 240.242188 301.425781 241.410156 299.660156 243.214844 298.898438 L 284.605469 281.316406 C 290.414062 279.21875 295.035156 274.488281 296.988281 268.628906 L 323.621094 188.785156 C 326.042969 181.527344 324.335938 173.941406 319.734375 168.636719 L 331.09375 132.503906 L 340.496094 132.503906 C 349.800781 132.503906 357.371094 124.933594 357.371094 115.628906 L 357.367188 16.875 C 357.367188 7.570312 349.796875 0 340.492188 0 Z M 186.375 280.703125 C 180 280.703125 173.851562 278.734375 168.707031 275.210938 C 171.847656 272.828125 173.695312 269.113281 173.691406 265.167969 L 173.691406 264.519531 C 174.296875 264.558594 174.90625 264.585938 175.519531 264.585938 L 197.226562 264.585938 C 197.839844 264.585938 198.449219 264.558594 199.054688 264.519531 L 199.054688 265.167969 L 199.058594 265.167969 C 199.058594 269.113281 200.902344 272.828125 204.042969 275.210938 C 198.898438 278.734375 192.75 280.703125 186.375 280.703125 Z M 218.753906 171.957031 C 218.792969 172.4375 218.816406 172.925781 218.816406 173.417969 L 218.816406 198.441406 C 216.757812 197.960938 214.792969 197.132812 213.007812 195.996094 C 210.96875 194.6875 209.199219 193 207.796875 191.019531 C 210.078125 188.488281 212.109375 185.742188 213.859375 182.816406 C 215.898438 179.394531 217.539062 175.75 218.753906 171.957031 Z M 153.929688 173.417969 C 153.929688 163.261719 162.203125 154.996094 172.375 154.996094 L 200.371094 154.996094 C 203.929688 154.996094 207.25 156.007812 210.070312 157.757812 C 208.988281 175.765625 196.625 191.753906 176.246094 198.410156 C 167.644531 201.023438 159.851562 200.871094 153.929688 199.949219 Z M 160.332031 244.847656 C 156.203125 240.722656 153.929688 235.238281 153.929688 229.40625 L 153.929688 211.316406 C 160.933594 212.207031 169.804688 212.125 179.515625 209.179688 C 186.746094 206.984375 193.550781 203.425781 199.515625 198.753906 L 199.519531 198.75 C 201.601562 201.398438 204.117188 203.671875 206.957031 205.480469 C 211.140625 208.152344 215.339844 209.367188 218.816406 209.878906 L 218.816406 229.402344 C 218.816406 235.234375 216.542969 240.71875 212.414062 244.84375 L 208.636719 248.617188 L 208.640625 248.617188 C 205.617188 251.648438 201.511719 253.347656 197.230469 253.335938 L 175.519531 253.335938 C 171.238281 253.347656 167.132812 251.648438 164.109375 248.617188 Z M 65.113281 173.515625 C 67.449219 172.644531 69.972656 172.753906 72.214844 173.824219 L 72.214844 173.820312 C 74.441406 174.878906 76.140625 176.800781 76.914062 179.140625 L 78.46875 183.796875 L 62.273438 192.609375 L 59.808594 185.21875 C 58.21875 180.453125 60.601562 175.203125 65.117188 173.515625 Z M 312.945312 185.21875 L 311.234375 190.347656 L 295.039062 181.535156 L 295.839844 179.136719 L 295.839844 179.140625 C 296.609375 176.800781 298.308594 174.878906 300.535156 173.824219 C 302.761719 172.753906 305.328125 172.640625 307.636719 173.515625 C 312.152344 175.203125 314.535156 180.453125 312.945312 185.21875 Z M 110.820312 39.992188 L 98.96875 75.667969 L 86.53125 39.832031 L 86.527344 39.832031 C 85.511719 36.894531 82.304688 35.34375 79.371094 36.363281 C 76.433594 37.378906 74.882812 40.585938 75.902344 43.519531 L 92.71875 91.964844 L 92.714844 91.964844 C 93.671875 94.648438 96.210938 96.441406 99.0625 96.441406 L 99.109375 96.441406 C 101.972656 96.421875 104.515625 94.585938 105.449219 91.839844 L 121.496094 43.539062 C 122.472656 40.589844 120.878906 37.40625 117.929688 36.429688 C 116.515625 35.957031 114.96875 36.070312 113.636719 36.738281 C 112.300781 37.40625 111.289062 38.578125 110.820312 39.992188 Z M 139.082031 66.246094 C 139.082031 82.894531 152.628906 96.441406 169.277344 96.441406 C 185.925781 96.441406 199.472656 82.894531 199.472656 66.246094 C 199.472656 49.597656 185.925781 36.050781 169.273438 36.050781 C 152.625 36.050781 139.078125 49.597656 139.078125 66.246094 Z M 188.222656 66.246094 C 188.222656 76.691406 179.722656 85.191406 169.277344 85.191406 C 158.832031 85.191406 150.332031 76.691406 150.332031 66.246094 C 150.332031 55.800781 158.832031 47.300781 169.277344 47.300781 C 179.722656 47.300781 188.222656 55.800781 188.222656 66.246094 Z M 291.535156 47.523438 C 294.640625 47.523438 297.160156 45.007812 297.160156 41.898438 C 297.160156 38.792969 294.640625 36.273438 291.535156 36.273438 L 271.019531 36.273438 C 267.910156 36.273438 265.394531 38.792969 265.394531 41.898438 L 265.394531 90.59375 C 265.394531 93.699219 267.910156 96.21875 271.019531 96.21875 L 291.535156 96.21875 C 294.640625 96.21875 297.160156 93.699219 297.160156 90.59375 C 297.160156 87.488281 294.640625 84.96875 291.535156 84.96875 L 276.644531 84.96875 L 276.644531 71.871094 L 290.023438 71.871094 C 293.128906 71.871094 295.648438 69.355469 295.648438 66.246094 C 295.648438 63.140625 293.128906 60.621094 290.023438 60.621094 L 276.644531 60.621094 L 276.644531 47.523438 Z M 291.535156 47.523438 " id="animate_2" data-original="#000001" fill="#000001"></path>
</g></g>
</svg>