<svg xmlns="http://www.w3.org/2000/svg" width="150pt" height="150pt" viewBox="0 0 150 150" version="1.1" class="iconadda">
<g id="animate_0" transform="rotate(0,75,75) translate(0,0) scale(1.0,1.0)">
<g id="animate_1" style="transform-origin: 74.998px 75px;"><path style="stroke: none; fill-rule: nonzero; fill-opacity: 1;" d="M 95.835938 23.4375 L 54.160156 23.4375 C 46.011719 23.445312 38.203125 26.683594 32.441406 32.441406 C 26.683594 38.203125 23.445312 46.011719 23.4375 54.160156 L 23.4375 95.835938 C 23.441406 103.984375 26.679688 111.792969 32.441406 117.554688 C 38.203125 123.316406 46.011719 126.554688 54.160156 126.5625 L 95.835938 126.5625 C 103.980469 126.554688 111.792969 123.316406 117.554688 117.554688 C 123.3125 111.792969 126.550781 103.980469 126.558594 95.835938 L 126.558594 54.160156 C 126.554688 46.011719 123.316406 38.199219 117.554688 32.441406 C 111.792969 26.679688 103.984375 23.441406 95.835938 23.4375 Z M 116.1875 95.835938 C 116.1875 101.234375 114.042969 106.410156 110.226562 110.226562 C 106.410156 114.042969 101.234375 116.1875 95.835938 116.1875 L 54.160156 116.1875 C 48.761719 116.1875 43.585938 114.042969 39.769531 110.226562 C 35.953125 106.410156 33.808594 101.234375 33.8125 95.835938 L 33.8125 54.160156 C 33.808594 48.761719 35.953125 43.585938 39.769531 39.769531 C 43.585938 35.953125 48.761719 33.808594 54.160156 33.8125 L 95.835938 33.8125 C 101.230469 33.8125 106.40625 35.957031 110.222656 39.773438 C 114.039062 43.589844 116.183594 48.761719 116.183594 54.160156 Z M 116.1875 95.835938 " id="animate_2" data-original="#000001" fill="#000001"></path>
</g><g id="animate_3" style="transform-origin: 78.2196px 71.9043px;"><path style="stroke: none; fill-rule: nonzero; fill-opacity: 1;" d="M 75 48.335938 C 60.289062 48.335938 48.335938 60.292969 48.335938 75 C 48.335938 89.703125 60.292969 101.664062 75 101.664062 C 89.703125 101.664062 101.664062 89.707031 101.664062 75 C 101.664062 60.296875 89.710938 48.335938 75 48.335938 Z M 75 91.289062 C 69.179688 91.289062 63.800781 88.1875 60.890625 83.148438 C 57.980469 78.105469 57.980469 71.898438 60.890625 66.859375 C 63.796875 61.816406 69.175781 58.710938 74.996094 58.710938 C 80.816406 58.710938 86.191406 61.8125 89.101562 66.851562 C 92.015625 71.894531 92.015625 78.101562 89.105469 83.140625 C 86.195312 88.183594 80.820312 91.289062 75 91.289062 Z M 101.71875 42.144531 C 104.300781 42.148438 106.628906 43.703125 107.617188 46.089844 C 108.605469 48.480469 108.058594 51.226562 106.230469 53.050781 C 104.40625 54.878906 101.660156 55.425781 99.269531 54.4375 C 96.882812 53.449219 95.328125 51.121094 95.324219 48.539062 C 95.324219 45.015625 97.714844 42.144531 101.71875 42.144531 Z M 101.71875 42.144531 " id="animate_4" data-original="#000001" fill="#000001"></path>
</g></g>
</svg>