<svg xmlns="http://www.w3.org/2000/svg" width="1875pt" height="1791.75pt" viewBox="0 0 1875 1791.75" version="1.1" class="iconadda">
<g id="animate_0" transform="rotate(0,937.5,895.875) translate(0,0) scale(1.0,1.0)">
<g id="animate_1" style="transform-origin: 937.5px 895.875px;"><path style="stroke: none; fill-rule: nonzero; fill-opacity: 1;" d="M 0 208.132812 C 0 147.804688 21.117188 98.03125 63.34375 58.820312 C 105.574219 19.609375 160.472656 0 228.039062 0 C 294.402344 0 348.089844 19.304688 389.117188 57.914062 C 431.347656 97.730469 452.460938 149.613281 452.460938 213.5625 C 452.460938 271.476562 431.949219 319.738281 390.925781 358.351562 C 348.695312 398.167969 293.195312 418.078125 224.421875 418.078125 L 222.613281 418.078125 C 156.25 418.078125 102.5625 398.167969 61.535156 358.351562 C 20.511719 318.535156 0 268.460938 0 208.132812 Z M 23.527344 1791.746094 L 23.527344 582.773438 L 425.3125 582.773438 L 425.3125 1791.75 L 23.527344 1791.75 Z M 647.925781 1791.746094 L 1049.710938 1791.746094 L 1049.710938 1116.675781 C 1049.710938 1074.445312 1054.539062 1041.867188 1064.191406 1018.945312 C 1081.082031 977.921875 1106.722656 943.230469 1141.109375 914.878906 C 1175.496094 886.523438 1218.628906 872.347656 1270.511719 872.347656 C 1405.648438 872.347656 1473.214844 963.441406 1473.214844 1145.632812 L 1473.214844 1791.746094 L 1875 1791.746094 L 1875 1098.578125 C 1875 920.007812 1832.769531 784.570312 1748.3125 692.269531 C 1663.851562 599.964844 1552.246094 553.8125 1413.488281 553.8125 C 1257.839844 553.8125 1136.582031 620.777344 1049.710938 754.707031 L 1049.710938 758.328125 L 1047.902344 758.328125 L 1049.710938 754.707031 L 1049.710938 582.773438 L 647.925781 582.773438 C 650.339844 621.382812 651.546875 741.433594 651.546875 942.933594 C 651.546875 1144.429688 650.339844 1427.367188 647.925781 1791.75 Z M 647.925781 1791.746094 " id="animate_2" data-original="#000000" fill="#000000"></path>
</g></g>
</svg>