<svg xmlns="http://www.w3.org/2000/svg" width="150pt" height="150pt" viewBox="0 0 150 150" version="1.1" class="iconadda">
<g id="animate_0" transform="rotate(0,75,75) translate(0,0) scale(1.0,1.0)">
<g id="animate_1" style="transform-origin: 75px 75px;"><path style="stroke: none; fill-rule: nonzero; fill-opacity: 1;" d="M 132.75 39.75 C 131.25 34.5 127.5 30.75 122.25 29.25 C 106.5 27.75 90.75 26.25 75 27 C 59.25 27 43.5 27.75 27.75 29.25 C 23.25 30.75 18.75 35.25 17.25 39.75 C 15.75 51.75 15 63 15 75 C 15 87 15.75 98.25 17.25 110.25 C 18.75 115.5 22.5 119.25 27.75 120.75 C 43.5 122.25 59.25 123.75 75 123 C 90.75 123 106.5 122.25 122.25 120.75 C 127.5 119.25 131.25 115.5 132.75 110.25 C 134.25 99 135 87 135 75 C 135 63 134.25 51.75 132.75 39.75 Z M 60 97.5 L 60 52.5 L 99 75 Z M 60 97.5 " id="animate_2" data-original="#000001" fill="#000001"></path>
</g></g>
</svg>