<svg xmlns="http://www.w3.org/2000/svg" width="384pt" height="384pt" viewBox="0 0 384 384" version="1.1" class="iconadda">
<g id="animate_0" transform="rotate(0,192,192) translate(0,0) scale(1.0,1.0)">
<g id="animate_1" style="transform-origin: 192px 192.092px;"><path style="stroke-width: 20; stroke-linecap: round; stroke-linejoin: round; stroke-opacity: 1; stroke-miterlimit: 10;" d="M 0.000375001 -0.000634386 L 0.000375001 -116.954109 L 84.261043 -116.954109 L 0.000375001 -303.142165 L 0.000375001 -186.469942 L -84.260293 -184.876187 Z M 0.000375001 -0.000634386 " transform="matrix(0.749998,0,0,-0.749998,191.999719,78.413587)" id="animate_2" stroke="#000000" data-original="#000000" fill="none" stroke-width="20px"></path>
</g><g id="animate_3" style="transform-origin: 284.25px 192.002px;"><path style="stroke-width: 20; stroke-linecap: round; stroke-linejoin: round; stroke-opacity: 1; stroke-miterlimit: 10;" d="M 0.000765002 -0.00107336 C 0.000765002 32.801108 27.730015 60.400149 60.401987 59.941814 C 84.162475 59.613688 104.495869 45.077186 113.381312 24.420875 C 114.443815 21.952117 116.829239 20.368779 119.50633 20.379196 L 119.678206 20.379196 C 160.339786 20.379196 193.303426 -12.704236 193.303426 -53.516858 C 193.303426 -58.334581 192.839883 -63.042928 191.959672 -67.605442 C 191.42842 -70.365867 192.668007 -73.152334 195.105515 -74.553379 C 225.501439 -92.032598 246.0015 -114.006622 246.0015 -151.694235 C 246.0015 -189.381848 225.501439 -211.366288 195.105515 -228.840299 C 192.668007 -230.241345 191.42842 -233.027811 191.959672 -235.793445 C 192.8503 -240.434084 193.303426 -245.147639 193.303426 -249.87682 C 193.303426 -290.689442 160.339786 -323.772874 119.678206 -323.772874 L 119.50633 -323.772874 C 116.824031 -323.767666 114.438607 -325.345796 113.381312 -327.819761 C 104.495869 -348.476073 84.167683 -363.007366 60.401987 -363.335492 C 27.724806 -363.788619 0.000765002 -336.189578 0.000765002 -303.392605 " transform="matrix(0.749998,0,0,-0.749998,191.999426,78.229664)" id="animate_4" stroke="#000000" data-original="#000000" fill="none" stroke-width="20px"></path>
</g><g id="animate_5" style="transform-origin: 287.961px 192px;"><path style="stroke-width: 20; stroke-linecap: round; stroke-linejoin: round; stroke-opacity: 1; stroke-miterlimit: 10;" d="M 0.000475391 0.000765002 C 17.359902 0.000765002 31.427653 -14.066985 31.427653 -31.421204 M 0.000475391 0.000765002 C 17.359902 0.000765002 31.427653 14.068515 31.427653 31.422734 " transform="matrix(0.749998,0,0,-0.749998,276.175425,192.000574)" id="animate_6" stroke="#000000" data-original="#000000" fill="none" stroke-width="20px"></path>
</g><g id="animate_7" style="transform-origin: 255.398px 123.045px;"><path style="stroke-width: 20; stroke-linecap: round; stroke-linejoin: round; stroke-opacity: 1; stroke-miterlimit: 10;" d="M 0.00244234 0.00192282 C 12.424354 0.00192282 22.492093 10.069661 22.492093 22.486365 " transform="matrix(0.749998,0,0,-0.749998,246.963012,131.478005)" id="animate_8" stroke="#000000" data-original="#000000" fill="none" stroke-width="20px"></path>
</g><g id="animate_9" style="transform-origin: 255.398px 260.955px;"><path style="stroke-width: 20; stroke-linecap: round; stroke-linejoin: round; stroke-opacity: 1; stroke-miterlimit: 10;" d="M 0.00244234 -0.000392813 C 12.424354 -0.000392813 22.492093 -10.068131 22.492093 -22.484835 " transform="matrix(0.749998,0,0,-0.749998,246.963012,252.523143)" id="animate_10" stroke="#000000" data-original="#000000" fill="none" stroke-width="20px"></path>
</g><g id="animate_11" style="transform-origin: 99.75px 192.002px;"><path style="stroke-width: 20; stroke-linecap: round; stroke-linejoin: round; stroke-opacity: 1; stroke-miterlimit: 10;" d="M 0.000765002 -0.00107336 C 0.000765002 32.801108 -27.728485 60.400149 -60.400457 59.941814 C -84.160945 59.613688 -104.494339 45.077186 -113.379782 24.420875 C -114.442285 21.952117 -116.827709 20.368779 -119.5048 20.379196 L -119.676676 20.379196 C -160.338256 20.379196 -193.301896 -12.704236 -193.301896 -53.516858 C -193.301896 -58.334581 -192.838353 -63.042928 -191.958142 -67.605442 C -191.42689 -70.365867 -192.666477 -73.152334 -195.103985 -74.553379 C -225.499909 -92.032598 -245.99997 -114.006622 -245.99997 -151.694235 C -245.99997 -189.381848 -225.499909 -211.366288 -195.103985 -228.840299 C -192.666477 -230.241345 -191.42689 -233.027811 -191.958142 -235.793445 C -192.853978 -240.434084 -193.301896 -245.147639 -193.301896 -249.87682 C -193.301896 -290.689442 -160.338256 -323.772874 -119.676676 -323.772874 L -119.5048 -323.772874 C -116.822501 -323.767666 -114.437077 -325.345796 -113.379782 -327.819761 C -104.494339 -348.476073 -84.166153 -363.007366 -60.400457 -363.335492 C -27.728485 -363.788619 0.000765002 -336.189578 0.000765002 -303.392605 " transform="matrix(0.749998,0,0,-0.749998,191.999426,78.229664)" id="animate_12" stroke="#000000" data-original="#000000" fill="none" stroke-width="20px"></path>
</g><g id="animate_13" style="transform-origin: 96.0391px 192px;"><path style="stroke-width: 20; stroke-linecap: round; stroke-linejoin: round; stroke-opacity: 1; stroke-miterlimit: 10;" d="M 0.00105461 0.000765002 C -17.358372 0.000765002 -31.426123 -14.066985 -31.426123 -31.421204 M 0.00105461 0.000765002 C -17.358372 0.000765002 -31.426123 14.068515 -31.426123 31.422734 " transform="matrix(0.749998,0,0,-0.749998,107.823428,192.000574)" id="animate_14" stroke="#000000" data-original="#000000" fill="none" stroke-width="20px"></path>
</g><g id="animate_15" style="transform-origin: 128.602px 123.045px;"><path style="stroke-width: 20; stroke-linecap: round; stroke-linejoin: round; stroke-opacity: 1; stroke-miterlimit: 10;" d="M -0.000912333 0.00192282 C -12.422824 0.00192282 -22.490563 10.069661 -22.490563 22.486365 " transform="matrix(0.749998,0,0,-0.749998,137.03584,131.478005)" id="animate_16" stroke="#000000" data-original="#000000" fill="none" stroke-width="20px"></path>
</g><g id="animate_17" style="transform-origin: 128.602px 260.955px;"><path style="stroke-width: 20; stroke-linecap: round; stroke-linejoin: round; stroke-opacity: 1; stroke-miterlimit: 10;" d="M -0.000912333 -0.000392813 C -12.422824 -0.000392813 -22.490563 -10.068131 -22.490563 -22.484835 " transform="matrix(0.749998,0,0,-0.749998,137.03584,252.523143)" id="animate_18" stroke="#000000" data-original="#000000" fill="none" stroke-width="20px"></path>
</g></g>
</svg>