<svg xmlns="http://www.w3.org/2000/svg" width="384pt" height="384pt" viewBox="0 0 384 384" version="1.1" class="iconadda">
<g id="animate_0" transform="rotate(0,192,192) translate(0,0) scale(1.0,1.0)">
<g id="animate_1" style="transform-origin: 192px 306.836px;"><path style="stroke-width: 15; stroke-linecap: round; stroke-linejoin: round; stroke-opacity: 1; stroke-miterlimit: 10;" d="M -0.00176594 0.0000224122 L -49.699831 0.0000224122 C -49.699831 82.43256 -116.38753 149.130676 -198.799235 149.130676 C -281.21094 149.130676 -347.898639 82.427352 -347.898639 0.0000224122 L -397.596704 0.0000224122 C -397.596704 90.338834 -337.5184 166.510937 -255.106695 190.771426 " transform="matrix(0.749998,0,0,-0.749998,341.098981,378.375017)" id="animate_2" stroke="#000000" data-original="#000000" fill="none" stroke-width="15px"></path>
</g><g id="animate_3" style="transform-origin: 304.158px 287.098px;"><path style="stroke-width: 15; stroke-linecap: round; stroke-linejoin: round; stroke-opacity: 1; stroke-miterlimit: 10;" d="M -0.00137464 -0.00184676 C 5.519475 -18.267526 8.488234 -37.647793 8.488234 -57.725978 L 58.186299 -57.725978 C 58.186299 62.310839 -26.668121 162.33718 -139.715334 185.681 " transform="matrix(0.749998,0,0,-0.749998,334.7315,335.080646)" id="animate_4" stroke="#000000" data-original="#000000" fill="none" stroke-width="15px"></path>
</g><g id="animate_5" style="transform-origin: 276.002px 269.723px;"><path style="stroke-width: 15; stroke-linecap: round; stroke-linejoin: round; stroke-opacity: 1; stroke-miterlimit: 10;" d="M 0.00187454 -0.00123611 C 52.653074 -13.792944 96.752164 -48.610756 122.809533 -94.97027 " transform="matrix(0.749998,0,0,-0.749998,229.947813,234.108448)" id="animate_6" stroke="#000000" data-original="#000000" fill="none" stroke-width="15px"></path>
</g><g id="animate_7" style="transform-origin: 77.6933px 287.566px;"><path style="stroke-width: 15; stroke-linecap: round; stroke-linejoin: round; stroke-opacity: 1; stroke-miterlimit: 10;" d="M -0.00190328 0.000996045 C -110.184524 -25.478247 -192.195186 -124.145208 -192.195186 -242.155978 L -142.497121 -242.155978 C -142.497121 -151.817166 -82.424025 -75.645063 -0.00711162 -51.389783 " transform="matrix(0.749998,0,0,-0.749998,149.767052,196.75856)" id="animate_8" stroke="#000000" data-original="#000000" fill="none" stroke-width="15px"></path>
</g><g id="animate_9" style="transform-origin: 134.148px 163.99px;"><path style="stroke-width: 15; stroke-linecap: round; stroke-linejoin: round; stroke-opacity: 1; stroke-miterlimit: 10;" d="M 0.00158468 0.000896655 C 0.17346 -44.48882 -0.826543 -88.488951 1.173463 -132.489083 C 2.173466 -152.489142 15.173505 -170.489196 33.173559 -179.489223 C 35.173565 -180.489226 38.173574 -181.489229 40.17358 -182.489232 C 43.173589 -183.489235 46.173598 -185.489241 50.17361 -184.489238 C 50.17361 -220.489346 50.17361 -256.489453 49.845484 -292.286435 " transform="matrix(0.749998,0,0,-0.749998,115.369905,54.383485)" id="animate_10" stroke="#000000" data-original="#000000" fill="none" stroke-width="15px"></path>
</g><g id="animate_11" style="transform-origin: 255.178px 190.613px;"><path style="stroke-width: 15; stroke-linecap: round; stroke-linejoin: round; stroke-opacity: 1; stroke-miterlimit: 10;" d="M -0.00233381 0.00198345 L -0.00233381 107.73668 C -0.00233381 107.73668 36.29465 130.215914 49.831148 145.007625 L 49.836357 145.002417 C 61.008265 156.179533 67.284326 171.341037 67.284326 187.143168 L 67.284326 220.023474 " transform="matrix(0.749998,0,0,-0.749998,229.947063,273.122581)" id="animate_12" stroke="#000000" data-original="#000000" fill="none" stroke-width="15px"></path>
</g><g id="animate_13" style="transform-origin: 164.379px 45.8086px;"><path style="stroke-width: 15; stroke-linecap: round; stroke-linejoin: round; stroke-opacity: 1; stroke-miterlimit: 10;" d="M 0.000659665 0.000937378 L -3.150391 0.000937378 C -14.348342 0.000937378 -23.431702 9.07909 -23.431702 20.282248 L -23.431702 85.303276 C -23.431702 97.37102 -13.645214 107.157508 -1.57747 107.157508 C 10.495483 107.157508 20.276762 97.37102 20.276762 85.303276 L 20.276762 20.282248 C 20.28197 9.07909 11.19861 0.000937378 0.000659665 0.000937378 Z M 0.000659665 0.000937378 " transform="matrix(0.749998,0,0,-0.749998,165.562005,85.992891)" id="animate_14" stroke="#000000" data-original="#000000" fill="none" stroke-width="15px"></path>
</g><g id="animate_15" style="transform-origin: 131.764px 45.8086px;"><path style="stroke-width: 15; stroke-linecap: round; stroke-linejoin: round; stroke-opacity: 1; stroke-miterlimit: 10;" d="M 0.00158468 0.000154219 L 0.00158468 -24.395752 C 0.00158468 -35.59891 9.079737 -44.677063 20.282895 -44.677063 L 23.433946 -44.677063 C 34.637105 -44.677063 43.715257 -35.59891 43.715257 -24.395752 L 43.715257 40.625276 C 43.715257 52.69302 33.928769 62.479508 21.861025 62.479508 C 9.782864 62.479508 0.00158468 52.69302 0.00158468 40.620067 L 0.00158468 39.932565 " transform="matrix(0.749998,0,0,-0.749998,115.369905,52.484491)" id="animate_16" stroke="#000000" data-original="#000000" fill="none" stroke-width="15px"></path>
</g><g id="animate_17" style="transform-origin: 197.162px 45.8086px;"><path style="stroke-width: 15; stroke-linecap: round; stroke-linejoin: round; stroke-opacity: 1; stroke-miterlimit: 10;" d="M 0.00011922 0.00140852 C -3.562391 -2.785058 -7.95303 -4.295479 -12.473876 -4.285063 L -15.624927 -4.285063 C -26.828086 -4.285063 -35.906238 4.79309 -35.906238 15.996248 L -35.906238 81.017276 C -35.906238 93.08502 -26.11975 102.871508 -14.052006 102.871508 C -1.984262 102.871508 7.802226 93.08502 7.802226 81.017276 L 7.807434 38.808816 " transform="matrix(0.749998,0,0,-0.749998,207.699129,82.7784)" id="animate_18" stroke="#000000" data-original="#000000" fill="none" stroke-width="15px"></path>
</g><g id="animate_19" style="transform-origin: 229.947px 29.6484px;"><path style="stroke-width: 15; stroke-linecap: round; stroke-linejoin: round; stroke-opacity: 1; stroke-miterlimit: 10;" d="M -0.000565783 -0.00118385 L -0.000565783 42.202067 C -0.000565783 54.27502 9.785922 64.061508 21.853666 64.061508 C 33.926619 64.061508 43.707898 54.27502 43.707898 42.207276 L 43.713107 0.629026 " transform="matrix(0.749998,0,0,-0.749998,213.555112,53.670987)" id="animate_20" stroke="#000000" data-original="#000000" fill="none" stroke-width="15px"></path>
</g><g id="animate_21" style="transform-origin: 235.984px 99.2617px;"><path style="stroke-width: 15; stroke-linecap: round; stroke-linejoin: round; stroke-opacity: 1; stroke-miterlimit: 10;" d="M -0.0016744 -0.00166488 L -0.0016744 70.019378 C -0.0016744 82.09233 -9.788162 91.878818 -21.855906 91.878818 L -83.949842 91.878818 C -96.022795 91.878818 -105.804074 82.09233 -105.804074 70.019378 C -105.804074 57.946425 -96.017586 48.159937 -83.949842 48.159937 L -52.902874 48.159937 L -52.902874 16.60776 C -52.902874 16.60776 -105.580115 19.316101 -118.470778 -30.944466 " transform="matrix(0.749998,0,0,-0.749998,280.411412,122.112033)" id="animate_22" stroke="#000000" data-original="#000000" fill="none" stroke-width="15px"></path>
</g><g id="animate_23" style="transform-origin: 192px 359.734px;"><path style="stroke-width: 15; stroke-linecap: round; stroke-linejoin: round; stroke-opacity: 1; stroke-miterlimit: 10;" d="M 0.00210371 0.0000224122 L -49.695961 0.0000224122 C -49.695961 27.479271 -71.925195 49.708504 -99.394027 49.708504 C -126.862859 49.708504 -149.0973 27.474063 -149.0973 0.0000224122 L -198.800574 0.0000224122 " transform="matrix(0.749998,0,0,-0.749998,266.549203,378.375017)" id="animate_24" stroke="#000000" data-original="#000000" fill="none" stroke-width="15px"></path>
</g><g id="animate_25" style="transform-origin: 192px 341.092px;"><path style="stroke-width: 15; stroke-linecap: round; stroke-linejoin: round; stroke-opacity: 1; stroke-miterlimit: 10;" d="M 0.00136112 0.0000224122 L 49.699426 0.0000224122 C 49.699426 54.953312 94.157892 99.422195 149.100765 99.422195 C 204.043638 99.422195 248.502104 54.953312 248.502104 0.0000224122 L 298.200169 0.0000224122 " transform="matrix(0.749998,0,0,-0.749998,80.17476,378.375017)" id="animate_26" stroke="#000000" data-original="#000000" fill="none" stroke-width="15px"></path>
</g><g id="animate_27" style="transform-origin: 45.418px 127.936px;"><path style="stroke-width: 15; stroke-linecap: round; stroke-linejoin: round; stroke-opacity: 1; stroke-miterlimit: 10;" d="M 0.00136112 0.000890792 L -31.920609 71.82923 L -59.227983 39.4958 L -92.686416 114.537691 " transform="matrix(0.749998,0,0,-0.749998,80.17476,170.887387)" id="animate_28" stroke="#000000" data-original="#000000" fill="none" stroke-width="15px"></path>
</g><g id="animate_29" style="transform-origin: 343.613px 127.936px;"><path style="stroke-width: 15; stroke-linecap: round; stroke-linejoin: round; stroke-opacity: 1; stroke-miterlimit: 10;" d="M -0.00147773 0.000890792 L 31.920493 71.82923 L 59.227866 39.4958 L 92.686299 114.537691 " transform="matrix(0.749998,0,0,-0.749998,308.856577,170.887387)" id="animate_30" stroke="#000000" data-original="#000000" fill="none" stroke-width="15px"></path>
</g></g>
</svg>