<svg xmlns="http://www.w3.org/2000/svg" width="150pt" height="150pt" viewBox="0 0 150 150" version="1.1" class="iconadda">
<g id="animate_0" transform="rotate(0,75,75) translate(0,0) scale(1.0,1.0)">
<g id="animate_1" style="transform-origin: 128.906px 70.3125px;"><path style="stroke-width: 2; stroke-linecap: round; stroke-linejoin: round; stroke-opacity: 1; stroke-miterlimit: 4;" d="M 55 29 L 55 31 " transform="matrix(2.34375,0,0,2.34375,0,0)" id="animate_2" stroke="#000000" data-original="#000000" fill="none" stroke-width="2px"></path>
</g><g id="animate_3" style="transform-origin: 128.906px 84.375px;"><path style="stroke-width: 2; stroke-linecap: round; stroke-linejoin: round; stroke-opacity: 1; stroke-miterlimit: 4;" d="M 55 35 L 55 37 " transform="matrix(2.34375,0,0,2.34375,0,0)" id="animate_4" stroke="#000000" data-original="#000000" fill="none" stroke-width="2px"></path>
</g><g id="animate_5" style="transform-origin: 121.875px 77.3438px;"><path style="stroke-width: 2; stroke-linecap: round; stroke-linejoin: round; stroke-opacity: 1; stroke-miterlimit: 4;" d="M 51 33 L 53 33 " transform="matrix(2.34375,0,0,2.34375,0,0)" id="animate_6" stroke="#000000" data-original="#000000" fill="none" stroke-width="2px"></path>
</g><g id="animate_7" style="transform-origin: 135.938px 77.3438px;"><path style="stroke-width: 2; stroke-linecap: round; stroke-linejoin: round; stroke-opacity: 1; stroke-miterlimit: 4;" d="M 57 33 L 59 33 " transform="matrix(2.34375,0,0,2.34375,0,0)" id="animate_8" stroke="#000000" data-original="#000000" fill="none" stroke-width="2px"></path>
</g><g id="animate_9" style="transform-origin: 24.6094px 92.5781px;"><path style="stroke: none; fill-rule: nonzero; fill-opacity: 1;" d="M 28.125 92.578125 C 28.125 97.265625 21.09375 97.265625 21.09375 92.578125 C 21.09375 87.890625 28.125 87.890625 28.125 92.578125 " id="animate_10" data-original="#000001" fill="#000001"></path>
</g><g id="animate_11" style="transform-origin: 78.5156px 121.432px;"><path style="stroke-width: 2; stroke-linecap: round; stroke-linejoin: round; stroke-opacity: 1; stroke-miterlimit: 4;" d="M 38.5 41.711667 L 46.405 45.211667 C 48.066667 45.943333 49.48 47.141667 50.473333 48.663333 C 51.466667 50.183333 51.996667 51.958333 52 53.775 L 52 62 L 15 62 L 15 53.775 C 15.003333 51.958333 15.533333 50.18 16.526667 48.66 C 17.521667 47.138333 18.936667 45.938333 20.6 45.206667 L 28.7 41.621667 " transform="matrix(2.34375,0,0,2.34375,0,0)" id="animate_12" stroke="#000000" data-original="#000000" fill="none" stroke-width="2px"></path>
</g><g id="animate_13" style="transform-origin: 86.7188px 130.352px;"><path style="stroke-width: 2; stroke-linecap: round; stroke-linejoin: round; stroke-opacity: 1; stroke-miterlimit: 4;" d="M 37 61.685 L 37 49.548333 " transform="matrix(2.34375,0,0,2.34375,0,0)" id="animate_14" stroke="#000000" data-original="#000000" fill="none" stroke-width="2px"></path>
</g><g id="animate_15" style="transform-origin: 98.4375px 123.975px;"><path style="stroke-width: 2; stroke-linecap: round; stroke-linejoin: round; stroke-opacity: 1; stroke-miterlimit: 4;" d="M 42 44 L 42 61.791667 " transform="matrix(2.34375,0,0,2.34375,0,0)" id="animate_16" stroke="#000000" data-original="#000000" fill="none" stroke-width="2px"></path>
</g><g id="animate_17" style="transform-origin: 78.5215px 109.964px;"><path style="stroke-width: 2; stroke-linecap: round; stroke-linejoin: round; stroke-opacity: 1; stroke-miterlimit: 4;" d="M 24.615 43.848333 C 25.526667 46.275 27.391667 48.221667 29.775 49.238333 C 32.16 50.255 34.855 50.253333 37.236667 49.233333 C 39.62 48.213333 41.481667 46.263333 42.39 43.836667 " transform="matrix(2.34375,0,0,2.34375,0,0)" id="animate_18" stroke="#000000" data-original="#000000" fill="none" stroke-width="2px"></path>
</g><g id="animate_19" style="transform-origin: 31.6406px 8.20312px;"><path style="stroke: none; fill-rule: nonzero; fill-opacity: 1;" d="M 34.292969 8.203125 C 34.292969 11.742188 28.988281 11.742188 28.988281 8.203125 C 28.988281 4.664062 34.292969 4.664062 34.292969 8.203125 " id="animate_20" data-original="#000001" fill="#000001"></path>
</g><g id="animate_21" style="transform-origin: 78.5156px 98.5703px;"><path style="stroke-width: 2; stroke-linecap: round; stroke-linejoin: round; stroke-opacity: 1; stroke-miterlimit: 4;" d="M 38 39.113333 L 38 41 C 38 42.061667 37.578333 43.078333 36.828333 43.828333 C 36.078333 44.578333 35.061667 45 34 45 L 33 45 C 30.791667 45 29 43.208333 29 41 L 29 39.326667 " transform="matrix(2.34375,0,0,2.34375,0,0)" id="animate_22" stroke="#000000" data-original="#000000" fill="none" stroke-width="2px"></path>
</g><g id="animate_23" style="transform-origin: 78.5141px 70.4558px;"><path style="stroke-width: 2; stroke-linecap: round; stroke-linejoin: round; stroke-opacity: 1; stroke-miterlimit: 4;" d="M 21 20 L 21 24.5 C 20.321667 24.5 19.67 24.775 19.2 25.263333 C 18.728333 25.753333 18.475 26.411667 18.5 27.091667 C 18.561667 27.898333 19 28.628333 19.683333 29.061667 C 20.288333 29.513333 21.083333 29.625 21.791667 29.361667 C 22.285 31.775 23.411667 34.015 25.056667 35.851667 C 26.7 37.686667 28.803333 39.053333 31.15 39.808333 C 32.548333 40.241667 34.046667 40.226667 35.435 39.761667 L 35.878333 39.618333 C 40.583333 38.091667 44.121667 34.181667 45.171667 29.348333 C 45.866667 29.615 46.648333 29.526667 47.265 29.111667 C 47.918333 28.725 48.363333 28.066667 48.48 27.318333 C 48.571667 26.605 48.351667 25.888333 47.876667 25.348333 C 47.401667 24.808333 46.718333 24.5 46 24.5 L 46 20.378333 " transform="matrix(2.34375,0,0,2.34375,0,0)" id="animate_24" stroke="#000000" data-original="#000000" fill="none" stroke-width="2px"></path>
</g><g id="animate_25" style="transform-origin: 90.2344px 66.7969px;"><path style="stroke: none; fill-rule: nonzero; fill-opacity: 1;" d="M 92.578125 66.796875 C 92.578125 69.921875 87.890625 69.921875 87.890625 66.796875 C 87.890625 63.671875 92.578125 63.671875 92.578125 66.796875 " id="animate_26" data-original="#000001" fill="#000001"></path>
</g><g id="animate_27" style="transform-origin: 66.7969px 66.7969px;"><path style="stroke: none; fill-rule: nonzero; fill-opacity: 1;" d="M 69.140625 66.796875 C 69.140625 69.921875 64.453125 69.921875 64.453125 66.796875 C 64.453125 63.671875 69.140625 63.671875 69.140625 66.796875 " id="animate_28" data-original="#000001" fill="#000001"></path>
</g><g id="animate_29" style="transform-origin: 78.5156px 49.226px;"><path style="stroke-width: 2; stroke-linecap: round; stroke-linejoin: round; stroke-opacity: 1; stroke-miterlimit: 4;" d="M 21.035 16.968333 C 21.011667 17.251667 21 17.54 21 17.835 C 21.006667 19.276667 21.036667 20.835 21.021667 21.921667 C 23.595 22.081667 26.123333 21.178333 28.01 19.421667 C 30.926667 25.066667 39.053333 27.383333 46 21.97 L 46 20 " transform="matrix(2.34375,0,0,2.34375,0,0)" id="animate_30" stroke="#000000" data-original="#000000" fill="none" stroke-width="2px"></path>
</g><g id="animate_31" style="transform-origin: 49.2188px 139.453px;"><path style="stroke-width: 2; stroke-linecap: round; stroke-linejoin: round; stroke-opacity: 1; stroke-miterlimit: 4;" d="M 21 62 L 21 57 " transform="matrix(2.34375,0,0,2.34375,0,0)" id="animate_32" stroke="#000000" data-original="#000000" fill="none" stroke-width="2px"></path>
</g><g id="animate_33" style="transform-origin: 105.469px 139.453px;"><path style="stroke-width: 2; stroke-linecap: round; stroke-linejoin: round; stroke-opacity: 1; stroke-miterlimit: 4;" d="M 45 62 L 45 57 " transform="matrix(2.34375,0,0,2.34375,0,0)" id="animate_34" stroke="#000000" data-original="#000000" fill="none" stroke-width="2px"></path>
</g><g id="animate_35" style="transform-origin: 78.5067px 25.7849px;"><path style="stroke-width: 2; stroke-linecap: round; stroke-linejoin: round; stroke-opacity: 1; stroke-miterlimit: 4;" d="M 46.993333 11.148333 C 46.948333 9.101667 45.86 7.22 44.108333 6.158333 C 36.876667 2.041667 29.761667 1.876667 22.775 6.1 C 21.013333 7.233333 19.963333 9.198333 20 11.293333 L 20 15.086667 C 20 17.248333 26.043333 19 33.5 19 C 36.403333 19.03 39.3 18.726667 42.135 18.095 " transform="matrix(2.34375,0,0,2.34375,0,0)" id="animate_36" stroke="#000000" data-original="#000000" fill="none" stroke-width="2px"></path>
</g><g id="animate_37" style="transform-origin: 105.469px 35.1562px;"><path style="stroke-width: 2; stroke-linecap: round; stroke-linejoin: round; stroke-opacity: 1; stroke-miterlimit: 4;" d="M 50 15 C 50 13.908333 49.016667 12.961667 47.563333 12.436667 C 47.038333 10.983333 46.091667 10 45 10 C 43.908333 10 42.961667 10.983333 42.436667 12.436667 C 40.983333 12.961667 40 13.908333 40 15 C 40 16.091667 40.983333 17.038333 42.436667 17.563333 C 42.961667 19.016667 43.908333 20 45 20 C 46.091667 20 47.038333 19.016667 47.563333 17.563333 C 49.016667 17.038333 50 16.091667 50 15 Z M 50 15 " transform="matrix(2.34375,0,0,2.34375,0,0)" id="animate_38" stroke="#000000" data-original="#000000" fill="none" stroke-width="2px"></path>
</g><g id="animate_39" style="transform-origin: 105.469px 35.1562px;"><path style="stroke: none; fill-rule: nonzero; fill-opacity: 1;" d="M 107.8125 35.15625 C 107.8125 38.28125 103.125 38.28125 103.125 35.15625 C 103.125 32.03125 107.8125 32.03125 107.8125 35.15625 " id="animate_40" data-original="#000001" fill="#000001"></path>
</g><g id="animate_41" style="transform-origin: 21.0938px 28.125px;"><path style="stroke-width: 2; stroke-linecap: round; stroke-linejoin: round; stroke-opacity: 1; stroke-miterlimit: 4;" d="M 7.586667 10.586667 L 10.413333 13.413333 " transform="matrix(2.34375,0,0,2.34375,0,0)" id="animate_42" stroke="#000000" data-original="#000000" fill="none" stroke-width="2px"></path>
</g><g id="animate_43" style="transform-origin: 21.0938px 28.125px;"><path style="stroke-width: 2; stroke-linecap: round; stroke-linejoin: round; stroke-opacity: 1; stroke-miterlimit: 4;" d="M 10.413333 10.586667 L 7.586667 13.413333 " transform="matrix(2.34375,0,0,2.34375,0,0)" id="animate_44" stroke="#000000" data-original="#000000" fill="none" stroke-width="2px"></path>
</g><g id="animate_45" style="transform-origin: 135.938px 105.469px;"><path style="stroke-width: 2; stroke-linecap: round; stroke-linejoin: round; stroke-opacity: 1; stroke-miterlimit: 4;" d="M 56.586667 43.586667 L 59.413333 46.413333 " transform="matrix(2.34375,0,0,2.34375,0,0)" id="animate_46" stroke="#000000" data-original="#000000" fill="none" stroke-width="2px"></path>
</g><g id="animate_47" style="transform-origin: 135.938px 105.469px;"><path style="stroke-width: 2; stroke-linecap: round; stroke-linejoin: round; stroke-opacity: 1; stroke-miterlimit: 4;" d="M 59.413333 43.586667 L 56.586667 46.413333 " transform="matrix(2.34375,0,0,2.34375,0,0)" id="animate_48" stroke="#000000" data-original="#000000" fill="none" stroke-width="2px"></path>
</g><g id="animate_49" style="transform-origin: 70.3125px 35.1562px;"><path style="stroke-width: 2; stroke-linecap: butt; stroke-linejoin: round; stroke-opacity: 1; stroke-miterlimit: 4;" d="M 20 15 L 40 15 " transform="matrix(2.34375,0,0,2.34375,0,0)" id="animate_50" stroke="#000000" data-original="#000000" fill="none" stroke-width="2px"></path>
</g></g>
</svg>